<?xml version="1.0" standalone="no"?>
<!DOCTYPE svg PUBLIC "-//W3C//DTD SVG 20010904//EN"
 "http://www.w3.org/TR/2001/REC-SVG-20010904/DTD/svg10.dtd">
<svg version="1.0" xmlns="http://www.w3.org/2000/svg"
 width="200.000000pt" height="200.000000pt" viewBox="0 0 200.000000 200.000000"
 preserveAspectRatio="xMidYMid meet">
<metadata>
Created by potrace 1.14, written by Peter Selinger 2001-2017
</metadata>
<g transform="translate(0.000000,200.000000) scale(0.100000,-0.100000)"
fill="#000000" stroke="none">
<path d="M0 1000 l0 -1000 1000 0 1000 0 0 1000 0 1000 -1000 0 -1000 0 0
-1000z m1249 808 c5 -18 13 -52 16 -75 8 -53 20 -55 29 -5 7 44 50 102 64 87
9 -8 0 -402 -9 -440 -1 -6 3 -23 9 -38 17 -41 15 -55 -18 -114 -22 -38 -30
-66 -30 -100 l0 -47 48 45 c70 68 90 79 147 79 53 0 61 -5 105 -64 14 -18 13
-19 -19 -13 l-33 7 23 -20 24 -19 -30 -1 c-50 -1 -72 -10 -86 -38 -8 -14 -24
-37 -37 -50 -12 -14 -32 -45 -44 -70 -25 -49 -81 -109 -112 -118 -17 -6 -141
-126 -227 -220 -48 -53 -82 -74 -124 -75 -56 -2 -69 1 -78 18 -7 12 -12 10
-31 -9 -28 -28 -42 -72 -20 -64 12 4 12 2 4 -14 -6 -11 -8 -25 -5 -31 4 -5 1
-18 -5 -27 -7 -9 -1 -5 13 11 33 35 44 35 19 -1 -11 -15 -26 -43 -34 -62 -15
-34 -95 -120 -111 -119 -4 0 -19 -9 -34 -21 -33 -26 -43 -25 -43 4 0 20 -4 22
-27 18 -22 -4 -25 -2 -19 13 4 11 1 22 -6 26 -10 7 -10 13 -1 27 7 12 8 23 3
28 -16 16 49 101 103 136 83 53 116 87 149 152 17 34 46 83 66 109 l35 48 -34
-2 c-72 -5 -109 0 -109 17 0 13 -5 11 -31 -7 -23 -16 -33 -19 -42 -10 -6 6
-19 11 -30 11 -14 0 -17 5 -12 20 8 24 -2 26 -26 4 -23 -20 -42 -9 -33 19 6
19 5 20 -9 9 -20 -17 -38 -7 -30 15 5 13 2 15 -12 10 -13 -5 -28 3 -54 30 -20
20 -35 41 -33 45 1 5 -5 11 -13 14 -8 4 -15 12 -15 19 0 7 -11 20 -25 29 -14
9 -25 25 -25 36 0 11 -5 20 -10 20 -6 0 -16 12 -22 28 -7 15 -23 40 -35 56
-15 17 -21 35 -18 47 3 10 -1 29 -10 43 -9 14 -15 33 -14 43 2 10 -5 32 -14
50 -22 41 -21 43 4 43 19 0 19 1 5 22 -20 28 -21 77 -2 84 11 4 12 13 5 37
-10 37 -3 67 16 67 8 0 15 12 17 28 3 25 6 22 30 -28 30 -61 78 -130 78 -113
0 7 -9 27 -20 45 -22 38 -52 119 -46 125 2 2 22 -30 45 -71 38 -70 75 -116 56
-70 -19 46 -33 104 -26 104 4 0 20 -31 35 -69 57 -145 158 -248 343 -351 40
-22 41 -22 62 -3 17 16 21 35 25 124 3 58 11 119 18 135 12 29 14 38 17 82 0
15 9 26 21 29 13 3 20 14 20 29 0 36 18 74 35 74 11 0 15 11 15 38 0 41 23 82
45 82 8 0 21 -12 29 -27 15 -28 15 -27 16 30 0 51 2 57 21 57 14 0 25 -12 36
-37 l16 -38 8 43 c5 23 11 47 14 52 12 20 34 9 44 -22z m407 -725 c-7 -7 -26
7 -26 19 0 6 6 6 15 -2 9 -7 13 -15 11 -17z m-1122 -876 c25 -18 17 -58 -14
-74 -14 -7 -19 -13 -12 -13 7 0 18 -11 24 -25 10 -22 8 -29 -12 -50 -20 -22
-32 -25 -89 -25 -46 1 -61 3 -50 10 9 5 26 46 39 91 20 68 21 82 9 90 -9 6 3
9 37 9 27 0 58 -6 68 -13z m436 -9 c-1 -21 -2 -21 -11 -5 -6 11 -22 17 -44 17
-38 0 -40 -2 -50 -47 -6 -30 -5 -33 19 -33 14 0 30 8 36 18 11 16 11 16 6 -1
-3 -11 -9 -31 -13 -45 -6 -25 -6 -25 -14 -4 -14 37 -44 27 -58 -19 -10 -34
-10 -43 1 -50 8 -6 -1 -9 -26 -9 -33 0 -37 2 -25 13 9 6 26 48 38 91 18 64 20
81 9 87 -8 5 17 9 60 9 68 0 72 -1 72 -22z m224 5 c2 -10 8 -46 11 -81 6 -53
9 -61 21 -51 10 9 9 2 -3 -19 -20 -35 -33 -41 -33 -14 -1 56 -22 167 -32 174
-9 5 -6 8 9 8 12 0 24 -8 27 -17z m169 9 c-6 -4 -21 -45 -33 -91 -18 -69 -20
-85 -9 -92 9 -6 0 -9 -26 -9 -25 0 -35 3 -27 9 14 8 53 146 44 155 -10 10 20
36 42 36 13 0 17 -3 9 -8z m-212 -89 c-12 -20 -14 -14 -5 12 4 9 9 14 11 11 3
-2 0 -13 -6 -23z m119 -3 c-12 -16 -24 -30 -26 -30 -3 0 4 14 16 30 12 17 24
30 26 30 3 0 -4 -13 -16 -30z m-139 -52 c-7 -18 -6 -29 2 -37 8 -8 2 -11 -23
-11 -33 0 -34 1 -13 15 11 8 24 26 27 41 4 14 9 24 12 22 2 -3 0 -17 -5 -30z"/>
<path d="M732 1166 c10 -7 15 -16 11 -19 -3 -4 2 -9 11 -13 9 -3 16 -12 16
-19 0 -8 7 -21 16 -30 23 -23 9 -31 -21 -11 -14 9 -25 13 -25 9 0 -5 9 -14 21
-21 13 -9 19 -20 16 -32 -3 -11 1 -21 9 -24 8 -3 14 -12 14 -21 0 -8 5 -15 10
-15 6 0 23 -11 37 -24 15 -14 30 -23 34 -21 4 3 12 -2 19 -10 7 -8 19 -15 26
-15 8 0 14 -10 14 -24 0 -27 18 -37 49 -29 25 6 54 -15 47 -34 -7 -18 -4 -17
49 13 38 21 54 24 89 19 55 -9 64 5 26 39 -17 14 -30 32 -30 39 0 6 -34 28
-76 46 -42 19 -92 48 -112 63 -19 15 -41 28 -48 28 -7 0 -14 4 -16 9 -2 5 -26
22 -54 39 -60 35 -157 78 -132 58z"/>
<path d="M1491 1156 c-14 -17 11 -30 41 -20 15 4 17 9 7 20 -15 18 -33 18 -48
0z"/>
<path d="M466 186 c-3 -13 -9 -31 -12 -40 -9 -24 38 -21 60 3 24 26 13 61 -19
61 -16 0 -25 -7 -29 -24z"/>
<path d="M437 93 c-3 -15 -9 -36 -12 -45 -11 -28 60 -25 75 3 20 36 9 64 -26
67 -27 3 -32 -1 -37 -25z"/>
</g>
</svg>
